<svg xmlns="http://www.w3.org/2000/svg">
  <symbol id="site-logo" preserveAspectRatio="xMidYMid meet" viewBox="0 0 32 32">
    <defs>
      <text alignment-baseline="before-edge" dominant-baseline="text-before-edge" font-family="Rubik" font-size="14"
            font-style="normal" font-weight="normal"
            id="e1Ztn7UdIo" letter-spacing="0" style="line-height:100%"
            transform="matrix(1 0 0 1 -8.531250000000004 5.512959116914091)" x="24.54"
            xml:space="preserve" y="1"><tspan alignment-baseline="before-edge" dominant-baseline="text-before-edge" dy="0em" text-anchor="middle" x="24.54">A</tspan></text>
      <path
        d="M24.42 17.51C22.73 19.19 18.42 23.46 16.73 25.14C16.3 25.56 15.62 25.55 15.19 25.13C13.52 23.44 9.25 19.13 7.57 17.44C7.15 17.01 7.15 16.33 7.57 15.91C9.27 14.23 13.57 9.96 15.27 8.28C15.69 7.86 16.38 7.86 16.8 8.28C18.48 9.98 22.75 14.28 24.43 15.98C24.85 16.4 24.84 17.09 24.42 17.51Z"
        id="b9g5gzEfKn"></path>
      <path
        d="M29.7 16.59C29.95 16.83 29.95 17.22 29.7 17.47C26.96 20.21 19.19 27.99 16.45 30.73C16.2 30.97 15.81 30.97 15.56 30.73C12.82 27.99 5.04 20.21 2.3 17.47C2.06 17.23 2.06 16.83 2.3 16.59C5.04 13.85 12.82 6.07 15.56 3.33C15.81 3.08 16.2 3.08 16.45 3.33C19.19 6.07 26.96 13.85 29.7 16.59Z"
        id="a16YCI00i1"></path>
      <path
        d="M29.7 14.57C29.95 14.81 29.95 15.21 29.7 15.45C26.96 18.19 19.19 25.97 16.45 28.71C16.2 28.96 15.81 28.96 15.56 28.71C12.82 25.97 5.04 18.2 2.3 15.46C2.06 15.21 2.06 14.82 2.3 14.57C5.04 11.83 12.82 4.05 15.56 1.31C15.81 1.07 16.2 1.07 16.45 1.31C19.19 4.05 26.96 11.83 29.7 14.57Z"
        id="f3brQf02GP"></path>
    </defs>
    <g>
      <g>
        <g id="b6HeXrBjBi">
          <use fill="#eeeeee" fill-opacity="1" href="#e1Ztn7UdIo" opacity="1"></use>
        </g>
        <g>
          <use fill="#e08ec1" fill-opacity="0" href="#b9g5gzEfKn" opacity="1"></use>
          <g>
            <use fill-opacity="0" href="#b9g5gzEfKn" opacity="1" stroke="#000000" stroke-opacity="0"
                 stroke-width="1"></use>
          </g>
        </g>
        <g>
          <g></g>
          <use fill="#298929" fill-opacity="0" href="#a16YCI00i1" opacity="1"></use>
          <g>
            <use fill-opacity="0" href="#a16YCI00i1" opacity="1" stroke="#e84a5f" stroke-opacity="1"
                 stroke-width="2"></use>
          </g>
        </g>
        <g>
          <g></g>
          <use fill="#298929" fill-opacity="0" href="#f3brQf02GP" opacity="1"></use>
          <g>
            <use fill-opacity="0" href="#f3brQf02GP" opacity="1" stroke="#485863" stroke-opacity="1"
                 stroke-width="2"></use>
          </g>
        </g>
      </g>
    </g>
  </symbol>
  <symbol fill="#eeeeee" id="welcome-card" viewBox="0 0 169 60">
    <text x="0" y="15">
      Hello,
    </text>
    <text x="0" y="35">
      This is
    </text>
    <text fill="#e84a5f" text-decoration="underline" x="50" y="35">
      Alessandro Roic
    </text>
    <text x="0" y="55">
      Front End Developer
    </text>
  </symbol>
  <symbol id="close-sidenav" viewBox="0 0 16 16">
    <path
      d="M2 0a2 2 0 0 0-2 2v12a2 2 0 0 0 2 2h12a2 2 0 0 0 2-2V2a2 2 0 0 0-2-2H2zm3.354 4.646L8 7.293l2.646-2.647a.5.5 0 0 1 .708.708L8.707 8l2.647 2.646a.5.5 0 0 1-.708.708L8 8.707l-2.646 2.647a.5.5 0 0 1-.708-.708L7.293 8 4.646 5.354a.5.5 0 1 1 .708-.708z"/>
  </symbol>
  <symbol id="cv" viewBox="0 0 16 16">
    <path
      d="M9.293 0H4a2 2 0 0 0-2 2v12a2 2 0 0 0 2 2h8a2 2 0 0 0 2-2V4.707A1 1 0 0 0 13.707 4L10 .293A1 1 0 0 0 9.293 0zM9.5 3.5v-2l3 3h-2a1 1 0 0 1-1-1zM11 8a3 3 0 1 1-6 0 3 3 0 0 1 6 0zm2 5.755V14a1 1 0 0 1-1 1H4a1 1 0 0 1-1-1v-.245S4 12 8 12s5 1.755 5 1.755z"/>
  </symbol>
  <symbol id="email" viewBox="0 0 16 16">
    <path
      d="M.05 3.555A2 2 0 0 1 2 2h12a2 2 0 0 1 1.95 1.555L8 8.414.05 3.555zM0 4.697v7.104l5.803-3.558L0 4.697zM6.761 8.83l-6.57 4.027A2 2 0 0 0 2 14h12a2 2 0 0 0 1.808-1.144l-6.57-4.027L8 9.586l-1.239-.757zm3.436-.586L16 11.801V4.697l-5.803 3.546z"/>
  </symbol>
  <symbol id="github" viewBox="0 0 16 16">
    <path
      d="M8 0C3.58 0 0 3.58 0 8c0 3.54 2.29 6.53 5.47 7.59.4.07.55-.17.55-.38 0-.19-.01-.82-.01-1.49-2.01.37-2.53-.49-2.69-.94-.09-.23-.48-.94-.82-1.13-.28-.15-.68-.52-.01-.53.63-.01 1.08.58 1.23.82.72 1.21 1.87.87 2.33.66.07-.52.28-.87.51-1.07-1.78-.2-3.64-.89-3.64-3.95 0-.87.31-1.59.82-2.15-.08-.2-.36-1.02.08-2.12 0 0 .67-.21 2.2.82.64-.18 1.32-.27 2-.27.68 0 1.36.09 2 .27 1.53-1.04 2.2-.82 2.2-.82.44 1.1.16 1.92.08 2.12.51.56.82 1.27.82 2.15 0 3.07-1.87 3.75-3.65 3.95.29.25.54.73.54 1.48 0 1.07-.01 1.93-.01 2.2 0 .21.15.46.55.38A8.012 8.012 0 0 0 16 8c0-4.42-3.58-8-8-8z"/>
  </symbol>
  <symbol id="linkedin" viewBox="0 0 16 16">
    <path
      d="M0 1.146C0 .513.526 0 1.175 0h13.65C15.474 0 16 .513 16 1.146v13.708c0 .633-.526 1.146-1.175 1.146H1.175C.526 16 0 15.487 0 14.854V1.146zm4.943 12.248V6.169H2.542v7.225h2.401zm-1.2-8.212c.837 0 1.358-.554 1.358-1.248-.015-.709-.52-1.248-1.342-1.248-.822 0-1.359.54-1.359 1.248 0 .694.521 1.248 1.327 1.248h.016zm4.908 8.212V9.359c0-.216.016-.432.08-.586.173-.431.568-.878 1.232-.878.869 0 1.216.662 1.216 1.634v3.865h2.401V9.25c0-2.22-1.184-3.252-2.764-3.252-1.274 0-1.845.7-2.165 1.193v.025h-.016a5.54 5.54 0 0 1 .016-.025V6.169h-2.4c.03.678 0 7.225 0 7.225h2.4z"/>
  </symbol>
  <symbol id="menu" viewBox="0 0 16 16">
    <path
      d="M2.5 12a.5.5 0 0 1 .5-.5h10a.5.5 0 0 1 0 1H3a.5.5 0 0 1-.5-.5zm0-4a.5.5 0 0 1 .5-.5h10a.5.5 0 0 1 0 1H3a.5.5 0 0 1-.5-.5zm0-4a.5.5 0 0 1 .5-.5h10a.5.5 0 0 1 0 1H3a.5.5 0 0 1-.5-.5z"
      fill-rule="evenodd"/>
  </symbol>
  <symbol class="ai ai-ArrowLeft" fill="none" id="arrow-left" stroke="currentColor" stroke-linecap="round"
          stroke-linejoin="round" stroke-width="2" viewBox="0 0 24 24" xmlns="http://www.w3.org/2000/svg">
    <path d="M11 5l-7 7 7 7"/>
    <path d="M4 12h16"/>
  </symbol>
  <symbol id="arrow-right" xmlns="http://www.w3.org/2000/svg" viewBox="0 0 24 24" fill="none"
          stroke="currentColor" stroke-width="2" stroke-linecap="round" stroke-linejoin="round"
          class="ai ai-ArrowRight">
    <path d="M4 12h16"/>
    <path d="M13 5l7 7-7 7"/>
  </symbol>
  <symbol clip-rule="evenodd" fill-rule="evenodd" id="accordion-arrow" xmlns="http://www.w3.org/2000/svg">
    <path d="M23.245 4l-11.245 14.374-11.219-14.374-.781.619 12 15.381 12-15.391-.755-.609z"/>
  </symbol>
</svg>
