<svg id="site-logo" preserveAspectRatio="xMidYMid meet" viewBox="0 0 32 32">
  <defs>
    <text id="e1Ztn7UdIo" x="24.54" y="1" font-size="14" font-family="Rubik" font-weight="normal" font-style="normal"
          letter-spacing="0" alignment-baseline="before-edge"
          transform="matrix(1 0 0 1 -8.531250000000004 5.512959116914091)" style="line-height:100%"
          xml:space="preserve"
          dominant-baseline="text-before-edge"><tspan x="24.54" dy="0em" alignment-baseline="before-edge" dominant-baseline="text-before-edge" text-anchor="middle">A</tspan></text>
    <path
      d="M24.42 17.51C22.73 19.19 18.42 23.46 16.73 25.14C16.3 25.56 15.62 25.55 15.19 25.13C13.52 23.44 9.25 19.13 7.57 17.44C7.15 17.01 7.15 16.33 7.57 15.91C9.27 14.23 13.57 9.96 15.27 8.28C15.69 7.86 16.38 7.86 16.8 8.28C18.48 9.98 22.75 14.28 24.43 15.98C24.85 16.4 24.84 17.09 24.42 17.51Z"
      id="b9g5gzEfKn"></path>
    <path
      d="M29.7 16.59C29.95 16.83 29.95 17.22 29.7 17.47C26.96 20.21 19.19 27.99 16.45 30.73C16.2 30.97 15.81 30.97 15.56 30.73C12.82 27.99 5.04 20.21 2.3 17.47C2.06 17.23 2.06 16.83 2.3 16.59C5.04 13.85 12.82 6.07 15.56 3.33C15.81 3.08 16.2 3.08 16.45 3.33C19.19 6.07 26.96 13.85 29.7 16.59Z"
      id="a16YCI00i1"></path>
    <path
      d="M29.7 14.57C29.95 14.81 29.95 15.21 29.7 15.45C26.96 18.19 19.19 25.97 16.45 28.71C16.2 28.96 15.81 28.96 15.56 28.71C12.82 25.97 5.04 18.2 2.3 15.46C2.06 15.21 2.06 14.82 2.3 14.57C5.04 11.83 12.82 4.05 15.56 1.31C15.81 1.07 16.2 1.07 16.45 1.31C19.19 4.05 26.96 11.83 29.7 14.57Z"
      id="f3brQf02GP"></path>
  </defs>
  <g>
    <g>
      <g id="b6HeXrBjBi">
        <use fill="#eeeeee" fill-opacity="1" href="#e1Ztn7UdIo" opacity="1"></use>
      </g>
      <g>
        <use fill="#F64E4D" fill-opacity="0" href="#b9g5gzEfKn" opacity="1"></use>
        <g>
          <use fill-opacity="0" href="#b9g5gzEfKn" opacity="1" stroke="#000000" stroke-opacity="0"
               stroke-width="1"></use>
        </g>
      </g>
      <g>
        <g></g>
        <use fill="#F64E4D" fill-opacity="0" href="#a16YCI00i1" opacity="1"></use>
        <g>
          <use fill-opacity="0" href="#a16YCI00i1" opacity="1" stroke="#F64E4D" stroke-opacity="1"
               stroke-width="2"></use>
        </g>
      </g>
      <g>
        <g></g>
        <use fill="#3F3E3D" fill-opacity="0" href="#f3brQf02GP" opacity="1"></use>
        <g>
          <use fill-opacity="0" href="#f3brQf02GP" opacity="1" stroke="#3F3E3D" stroke-opacity="1"
               stroke-width="2"></use>
        </g>
      </g>
    </g>
  </g>
</svg>
