<svg xmlns="http://www.w3.org/2000/svg">
  <symbol id="site-logo" preserveAspectRatio="xMidYMid meet" viewBox="0 0 32 32">
    <defs>
      <text alignment-baseline="before-edge" dominant-baseline="text-before-edge" font-family="Rubik" font-size="14"
            font-style="normal" font-weight="normal"
            id="e1Ztn7UdIo" letter-spacing="0" style="line-height:100%"
            transform="matrix(1 0 0 1 -8.531250000000004 5.512959116914091)" x="24.54"
            xml:space="preserve" y="1"><tspan alignment-baseline="before-edge" dominant-baseline="text-before-edge" dy="0em" text-anchor="middle" x="24.54">A</tspan></text>
      <path
        d="M24.42 17.51C22.73 19.19 18.42 23.46 16.73 25.14C16.3 25.56 15.62 25.55 15.19 25.13C13.52 23.44 9.25 19.13 7.57 17.44C7.15 17.01 7.15 16.33 7.57 15.91C9.27 14.23 13.57 9.96 15.27 8.28C15.69 7.86 16.38 7.86 16.8 8.28C18.48 9.98 22.75 14.28 24.43 15.98C24.85 16.4 24.84 17.09 24.42 17.51Z"
        id="b9g5gzEfKn"></path>
      <path
        d="M29.7 16.59C29.95 16.83 29.95 17.22 29.7 17.47C26.96 20.21 19.19 27.99 16.45 30.73C16.2 30.97 15.81 30.97 15.56 30.73C12.82 27.99 5.04 20.21 2.3 17.47C2.06 17.23 2.06 16.83 2.3 16.59C5.04 13.85 12.82 6.07 15.56 3.33C15.81 3.08 16.2 3.08 16.45 3.33C19.19 6.07 26.96 13.85 29.7 16.59Z"
        id="a16YCI00i1"></path>
      <path
        d="M29.7 14.57C29.95 14.81 29.95 15.21 29.7 15.45C26.96 18.19 19.19 25.97 16.45 28.71C16.2 28.96 15.81 28.96 15.56 28.71C12.82 25.97 5.04 18.2 2.3 15.46C2.06 15.21 2.06 14.82 2.3 14.57C5.04 11.83 12.82 4.05 15.56 1.31C15.81 1.07 16.2 1.07 16.45 1.31C19.19 4.05 26.96 11.83 29.7 14.57Z"
        id="f3brQf02GP"></path>
    </defs>
    <g>
      <g>
        <g id="b6HeXrBjBi">
          <use fill="#eeeeee" fill-opacity="1" href="#e1Ztn7UdIo" opacity="1"></use>
        </g>
        <g>
          <use fill="#e08ec1" fill-opacity="0" href="#b9g5gzEfKn" opacity="1"></use>
          <g>
            <use fill-opacity="0" href="#b9g5gzEfKn" opacity="1" stroke="#000000" stroke-opacity="0"
                 stroke-width="1"></use>
          </g>
        </g>
        <g>
          <g></g>
          <use fill="#298929" fill-opacity="0" href="#a16YCI00i1" opacity="1"></use>
          <g>
            <use fill-opacity="0" href="#a16YCI00i1" opacity="1" stroke="#e84a5f" stroke-opacity="1"
                 stroke-width="2"></use>
          </g>
        </g>
        <g>
          <g></g>
          <use fill="#298929" fill-opacity="0" href="#f3brQf02GP" opacity="1"></use>
          <g>
            <use fill-opacity="0" href="#f3brQf02GP" opacity="1" stroke="#485863" stroke-opacity="1"
                 stroke-width="2"></use>
          </g>
        </g>
      </g>
    </g>
  </symbol>
  <symbol id="welcome-card" fill="#eeeeee" viewBox="0 0 169 60">
    <text x="0" y="15">
      Hello,
    </text>
    <text x="0" y="35">
      This is
    </text>
    <text fill="#e84a5f" text-decoration="underline" x="50" y="35">
      Alessandro Roic
    </text>
    <text x="0" y="55">
      Front End Developer
    </text>
  </symbol>
  <symbol id="cv" viewBox="0 0 24 24" fill="none" stroke="currentColor" stroke-width="2" stroke-linecap="round"
          stroke-linejoin="round">
    <path
      d="M4 4v16a2 2 0 0 0 2 2h12a2 2 0 0 0 2-2V8.342a2 2 0 0 0-.602-1.43l-4.44-4.342A2 2 0 0 0 13.56 2H6a2 2 0 0 0-2 2z"/>
    <path d="M9 13h6"/>
    <path d="M9 17h3"/>
    <path d="M14 2v4a2 2 0 0 0 2 2h4"/>
  </symbol>
  <symbol id="email" viewBox="0 0 24 24" fill="none" stroke="currentColor" stroke-width="2" stroke-linecap="round"
          stroke-linejoin="round">
    <circle cx="12" cy="12" r="4"/>
    <path d="M22 12c0-5.523-4.477-10-10-10S2 6.477 2 12s4.477 10 10 10c2.252 0 4.33-.744 6.001-2"/>
    <path d="M16 8v4c0 1 .6 3 3 3s3-2 3-3"/>
  </symbol>
  <symbol id="github" viewBox="0 0 24 24">
    <path
      d="M12 2c5.514 0 10 4.486 10 10s-4.486 10-10 10-10-4.486-10-10 4.486-10 10-10zm0-2c-6.627 0-12 5.373-12 12s5.373 12 12 12 12-5.373 12-12-5.373-12-12-12zm0 6c-3.313 0-6 2.686-6 6 0 2.651 1.719 4.9 4.104 5.693.3.056.396-.13.396-.289v-1.117c-1.669.363-2.017-.707-2.017-.707-.272-.693-.666-.878-.666-.878-.544-.373.041-.365.041-.365.603.042.92.619.92.619.535.917 1.403.652 1.746.499.054-.388.209-.652.381-.802-1.333-.152-2.733-.667-2.733-2.965 0-.655.234-1.19.618-1.61-.062-.153-.268-.764.058-1.59 0 0 .504-.161 1.65.615.479-.133.992-.199 1.502-.202.51.002 1.023.069 1.503.202 1.146-.776 1.648-.615 1.648-.615.327.826.121 1.437.06 1.588.385.42.617.955.617 1.61 0 2.305-1.404 2.812-2.74 2.96.216.186.412.551.412 1.111v1.646c0 .16.096.347.4.288 2.383-.793 4.1-3.041 4.1-5.691 0-3.314-2.687-6-6-6z"/>
  </symbol>
  <symbol id="linkedin" viewBox="0 0 24 24">
    <path
      d="M12 2c5.514 0 10 4.486 10 10s-4.486 10-10 10-10-4.486-10-10 4.486-10 10-10zm0-2c-6.627 0-12 5.373-12 12s5.373 12 12 12 12-5.373 12-12-5.373-12-12-12zm-2 8c0 .557-.447 1.008-1 1.008s-1-.45-1-1.008c0-.557.447-1.008 1-1.008s1 .452 1 1.008zm0 2h-2v6h2v-6zm3 0h-2v6h2v-2.861c0-1.722 2.002-1.881 2.002 0v2.861h1.998v-3.359c0-3.284-3.128-3.164-4-1.548v-1.093z"/>
  </symbol>
  <symbol id="chevron-left" viewBox="0 0 24 24" fill="none" stroke="currentColor" stroke-width="3"
          stroke-linecap="round"
          stroke-linejoin="round">
    <path d="M15 4l-8 8 8 8"/>
  </symbol>
  <symbol id="chevron-right" viewBox="0 0 24 24" fill="none" stroke="currentColor" stroke-width="3"
          stroke-linecap="round"
          stroke-linejoin="round">
    <path d="M8 4l8 8-8 8"/>
  </symbol>
  <symbol id="chevron-up" viewBox="0 0 24 24" fill="none" stroke="currentColor" stroke-width="2" stroke-linecap="round"
          stroke-linejoin="round">
    <path d="M4 15l8-8 8 8"/>
  </symbol>
  <symbol id="arrow-up" viewBox="0 0 24 24" fill="none" stroke="currentColor" stroke-width="1.5" stroke-linecap="round"
          stroke-linejoin="round">
    <circle cx="12" cy="12" r="9" fill="#303841"/>
    <path d="M8 13.5l4-4 4 4" stroke="#eeeeee"/>
  </symbol>
  <symbol id="menu-left" viewBox="0 0 24 24" fill="none" stroke="currentColor" stroke-width="2"
          stroke-linecap="round" stroke-linejoin="round">
    <path d="M3 6h18M3 12h10M3 18h15"/>
  </symbol>
  <symbol id="menu-center" viewBox="0 0 24 24" fill="none" stroke="currentColor" stroke-width="2"
          stroke-linecap="round" stroke-linejoin="round">
    <path d="M3 6h18M7 12h10M5 18h14"/>
  </symbol>
  <symbol id="menu-right" viewBox="0 0 24 24" fill="none" stroke="currentColor" stroke-width="2"
          stroke-linecap="round" stroke-linejoin="round">
    <path d="M3 6h18m-10 6h10M6 18h15"/>
  </symbol>
  <symbol id="close-sidenav" viewBox="0 0 24 24" fill="none" stroke="currentColor" stroke-width="2"
          stroke-linecap="round" stroke-linejoin="round">
    <path d="M15 15L9 9m6 0l-6 6"/>
    <circle cx="12" cy="12" r="10"/>
  </symbol>
</svg>
